PathFileType	4	(X/Y/Z)	C:/Users/opensim2020/Desktop/walking_exp_matlab/subject03_walking13_straight_01.trc																																																																																																																																								
DataRate	CameraRate	NumFrames	NumMarkers	Units	OrigDataRate	OrigDataStartFrame	OrigNumFrames																																																																																																																																				
100	100	5	46	mm	100	707	185																																																																																																																																				
Frame#	Time	LFHD			RFHD			LBHD			RBHD			C7			T10			CLAV			STRN			RBAK			LSHO			LUPA			LELB			LFRM			LWRA			LWRB			LFIN			RSHO			RUPA			RELB			RFRM			RWRA			RWRB			RFIN			LASI			RASI			LPSI			RPSI			LTHI			LKNE			LTIB			LANK			LHEE			LTOE			RTHI			RKNE			RTIB			RANK			RHEE			RTOE			*39			*40			*41			*42			*43			*44			*45		
		X1	Y1	Z1	X2	Y2	Z2	X3	Y3	Z3	X4	Y4	Z4	X5	Y5	Z5	X6	Y6	Z6	X7	Y7	Z7	X8	Y8	Z8	X9	Y9	Z9	X10	Y10	Z10	X11	Y11	Z11	X12	Y12	Z12	X13	Y13	Z13	X14	Y14	Z14	X15	Y15	Z15	X16	Y16	Z16	X17	Y17	Z17	X18	Y18	Z18	X19	Y19	Z19	X20	Y20	Z20	X21	Y21	Z21	X22	Y22	Z22	X23	Y23	Z23	X24	Y24	Z24	X25	Y25	Z25	X26	Y26	Z26	X27	Y27	Z27	X28	Y28	Z28	X29	Y29	Z29	X30	Y30	Z30	X31	Y31	Z31	X32	Y32	Z32	X33	Y33	Z33	X34	Y34	Z34	X35	Y35	Z35	X36	Y36	Z36	X37	Y37	Z37	X38	Y38	Z38	X39	Y39	Z39	X40	Y40	Z40	X41	Y41	Z41	X42	Y42	Z42	X43	Y43	Z43	X44	Y44	Z44	X45	Y45	Z45	X46	Y46	Z46
																																																																																																																																											
162	1.61	795.16187	1621.88074	-1021.95117	768.23743	1619.68335	-891.92157	675.83142	1563.13635	-1044.28442	654.39624	1560.98193	-915.64673	655.60284	1397.37976	-979.09558	648.19678	1084.70996	-984.24255	784.49268	1333.05823	-976.71338	842.45465	1171.63757	-989.17371	614.84949	1216.68982	-891.84436	728.64215	1371.34131	-1130.97827	750.96729	1181.93604	-1208.47986	793.81403	1069.8269	-1219.24426	894.85089	998.07788	-1203.28955	990.7843	944.46991	-1155.72424	973.59259	915.39691	-1198.6925	1050.44946	886.84192	-1183.60291	726.80811	1352.95398	-818.51154	707.04736	1129.94373	-750.44141	709.16888	1015.85663	-740.15021	702.28772	878.62988	-738.20764	714.29559	778.15509	-773.52142	682.19104	779.60291	-729.08167	681.09442	703.40515	-744.94879	805.16388	922.69678	-1111.91772	826.7887	934.87207	-874.08685	649.04083	941.0274	-1046.47742	660.94116	959.28363	-898.8717	771.41083	618.70374	-1165.05969	799.27655	440.59839	-1155.27673	638.84918	328.76416	-1139.64136	478.6539	203.53809	-1086.9751	433.26724	214.21638	-1041.74194	531.20563	62.1154	-1079.09937	818.15082	638.77271	-833.4751	867.26807	470.32895	-885.72559	827.22821	278.28412	-884.07416	787.06781	68.60396	-938.18896	737.21588	38.65203	-986.18494	924.80927	32.15479	-960.81128	696.85748	1670.77466	-987.49518	NaN	NaN	NaN	NaN	NaN	NaN	NaN	NaN	NaN	NaN	NaN	NaN	NaN	NaN	NaN	NaN	NaN	NaN
163	1.62	808.95215	1624.05432	-1020.86743	782.12726	1621.55627	-890.77252	689.38391	1565.70459	-1043.17981	668.0368	1563.28638	-914.53625	668.87964	1399.81726	-978.32117	661.28735	1087.01404	-983.51575	797.68146	1335.28809	-976.21869	855.56207	1173.89917	-988.48401	628.01666	1219.15784	-890.75891	741.21661	1374.00427	-1130.33826	761.71564	1183.98816	-1207.79321	803.49817	1071.10437	-1217.9082	902.27966	995.75323	-1202.68542	996.43201	938.46277	-1155.69495	978.18298	910.39807	-1198.86572	1053.97522	879.31525	-1184.56055	740.54376	1355.15576	-817.95392	723.99164	1131.89502	-749.38885	727.8512	1017.9696	-738.86169	723.27472	880.68823	-736.49353	736.57288	780.4505	-771.82062	705.07629	781.3584	-727.01141	706.34149	705.24481	-742.06079	819.61517	925.80792	-1110.1488	839.05487	936.42773	-872.51727	662.6759	943.86835	-1046.24878	673.69299	961.10626	-898.60864	792.02112	621.784	-1164.28125	824.34314	444.72531	-1154.50256	666.94543	329.11484	-1139.26672	510.10602	198.96803	-1087.44763	463.29077	207.17868	-1042.71021	570.78369	61.4618	-1078.479	826.71454	639.46436	-833.20172	871.31976	469.81824	-885.72333	828.61078	278.33432	-884.10474	787.01837	68.78644	-938.23761	737.22058	38.90573	-986.37103	924.76074	32.10113	-960.74445	NaN	NaN	NaN	712.84387	1667.80176	-979.10468	NaN	NaN	NaN	NaN	NaN	NaN	NaN	NaN	NaN	NaN	NaN	NaN	NaN	NaN	NaN
164	1.63	822.703	1626.00708	-1019.69537	795.94965	1623.28577	-889.586	702.89441	1568.21594	-1042.07336	681.53888	1565.6864	-913.49377	682.13324	1402.02112	-977.62079	674.32684	1089.19116	-982.67035	810.82581	1337.42419	-975.63983	868.5473	1175.99744	-987.53558	641.00153	1221.6051	-889.92401	753.92212	1376.4751	-1129.63733	772.49615	1185.9325	-1207.04468	813.1377	1072.31934	-1216.82617	909.44543	993.19482	-1202.2312	1001.58777	932.09668	-1155.71582	982.16589	905.09711	-1199.07178	1056.44507	871.02338	-1185.32251	753.97742	1357.24182	-817.34167	740.76257	1133.73401	-748.58765	746.61536	1020.12799	-737.63654	744.47577	882.88806	-735.013	759.25012	782.87872	-770.08801	728.32281	783.258	-724.88409	732.04315	707.25647	-739.26471	833.7901	928.96106	-1108.22583	851.11896	937.90704	-870.64026	676.4458	946.6637	-1046.31177	686.31433	962.67548	-898.33728	812.112	624.95776	-1163.38416	848.95471	448.93167	-1153.42639	695.40057	328.58279	-1138.73706	542.47797	192.94138	-1087.92395	494.26068	198.46576	-1043.83032	611.0564	59.31678	-1077.25208	835.08325	640.17651	-833.62567	875.15308	469.3121	-885.56628	829.36566	278.4498	-884.16559	786.96338	69.01841	-938.30383	737.27313	39.26384	-986.5896	924.77155	32.03458	-960.6925	NaN	NaN	NaN	724.78198	1674.97961	-984.57251	NaN	NaN	NaN	NaN	NaN	NaN	NaN	NaN	NaN	NaN	NaN	NaN	NaN	NaN	NaN
165	1.64	836.35065	1627.69836	-1018.45337	809.64447	1624.7561	-888.46497	716.34583	1570.50647	-1041.01025	695.13672	1567.60901	-912.4043	695.32666	1404.00757	-976.96326	687.29462	1091.20105	-981.89966	823.86096	1339.3418	-974.93848	881.49481	1177.88525	-986.37653	653.83917	1223.89331	-889.15289	766.8324	1378.64441	-1128.85974	783.42474	1187.64648	-1206.26587	822.73102	1073.27368	-1216.10107	916.35712	990.35168	-1201.87585	1006.11719	925.32019	-1155.69971	985.65234	899.5733	-1199.43799	1058.33984	862.46094	-1186.11267	767.08948	1359.25354	-816.76172	757.56952	1135.81799	-747.56891	765.57141	1022.39532	-736.32684	765.90161	885.09094	-733.15503	783.24725	785.71747	-767.54578	751.93872	785.28003	-722.78674	758.30554	709.52478	-736.37073	850.26263	933.41772	-1104.38708	862.93634	939.12549	-868.56744	690.11804	949.35809	-1046.36316	699.19983	964.04584	-898.41504	831.74921	628.20367	-1162.4519	872.98309	453.13953	-1152.06519	724.15063	327.17792	-1138.146	575.8064	185.67294	-1088.35815	526.41913	188.35782	-1044.86462	652.81445	57.34151	-1076.0885	843.70502	640.68176	-833.35968	878.72778	468.75354	-885.20526	830.28265	278.53186	-883.85211	786.93646	69.25726	-938.34436	737.32208	39.52675	-986.83643	924.79016	31.97799	-960.61401	NaN	NaN	NaN	739.01208	1677.3927	-983.59198	NaN	NaN	NaN	NaN	NaN	NaN	NaN	NaN	NaN	NaN	NaN	NaN	NaN	NaN	NaN
166	1.65	850.13751	1629.2533	-1017.36963	823.33221	1626.06641	-887.28149	729.86749	1572.5636	-1040.00854	708.61359	1569.45972	-911.37646	708.46313	1405.85303	-976.41571	700.24884	1092.90479	-981.0705	836.8501	1341.05017	-974.11774	894.38361	1179.51477	-985.00647	666.5943	1226.02771	-888.38312	779.99823	1380.48743	-1128.03577	794.62769	1189.20984	-1205.62964	832.39703	1073.84961	-1215.68323	922.99847	987.22394	-1201.64258	1010.06665	918.00183	-1155.63477	988.55865	893.71429	-1199.72485	1059.59534	853.52881	-1186.79114	779.99286	1361.10657	-816.09497	774.05664	1137.65979	-746.32916	784.34314	1024.65283	-735.00885	787.53656	887.37622	-731.44275	806.495	788.36194	-766.41052	776.15887	787.27783	-720.62817	784.83508	711.99353	-733.53906	864.28986	935.83252	-1102.74658	874.67731	940.29047	-866.52252	703.84717	951.75745	-1046.55676	711.29926	965.42047	-898.37622	851.07733	631.40942	-1161.49377	896.67029	457.38602	-1150.32703	753.06305	325.04291	-1137.56226	610.13403	177.36168	-1088.73657	559.82446	177.06348	-1045.65918	694.96411	54.67058	-1075.17786	851.91675	640.86816	-833.47961	882.30115	468.18625	-884.79901	831.48608	278.61102	-883.51453	786.96838	69.52384	-938.37958	737.29297	40.03008	-986.87994	924.85443	31.9351	-960.55359	NaN	NaN	NaN	752.87671	1677.14954	-982.47375	NaN	NaN	NaN	NaN	NaN	NaN	NaN	NaN	NaN	NaN	NaN	NaN	NaN	NaN	NaN
